<?xml version="1.0" encoding="UTF-8" standalone="no"?>
<!-- Created with Inkscape (http://www.inkscape.org/) -->

<svg
   xmlns:dc="http://purl.org/dc/elements/1.1/"
   xmlns:cc="http://creativecommons.org/ns#"
   xmlns:rdf="http://www.w3.org/1999/02/22-rdf-syntax-ns#"
   xmlns:svg="http://www.w3.org/2000/svg"
   xmlns="http://www.w3.org/2000/svg"
   xmlns:sodipodi="http://sodipodi.sourceforge.net/DTD/sodipodi-0.dtd"
   xmlns:inkscape="http://www.inkscape.org/namespaces/inkscape"
   width="152.0285mm"
   height="114.20393mm"
   viewBox="0 0 152.0285 114.20393"
   version="1.1"
   id="svg3819"
   sodipodi:docname="lameboiwithtext.svg"
   inkscape:version="0.92.4 (5da689c313, 2019-01-14)">
  <defs
     id="defs3813" />
  <sodipodi:namedview
     id="base"
     pagecolor="#ffffff"
     bordercolor="#666666"
     borderopacity="1.0"
     inkscape:pageopacity="0.0"
     inkscape:pageshadow="2"
     inkscape:zoom="0.98994949"
     inkscape:cx="313.00199"
     inkscape:cy="126.89961"
     inkscape:document-units="mm"
     inkscape:current-layer="layer1"
     showgrid="false"
     inkscape:window-width="1920"
     inkscape:window-height="1017"
     inkscape:window-x="1912"
     inkscape:window-y="363"
     inkscape:window-maximized="1" />
  <metadata
     id="metadata3816">
    <rdf:RDF>
      <cc:Work
         rdf:about="">
        <dc:format>image/svg+xml</dc:format>
        <dc:type
           rdf:resource="http://purl.org/dc/dcmitype/StillImage" />
      </cc:Work>
    </rdf:RDF>
  </metadata>
  <g
     inkscape:label="Layer 1"
     inkscape:groupmode="layer"
     id="layer1"
     transform="translate(-25.93787,-66.515813)">
    <g
       id="g3777"
       transform="matrix(0.62011719,0,0,0.62011719,49.342396,63.160527)">
      <g
         id="g3775">
        <g
           id="g3765">
          <path
             inkscape:connector-curvature="0"
             id="use3759"
             d="M 136.144,151.43427 H 62.751229 L 94.350417,57.909354 H 167.23519 L 138.69194,105.05281 Z M 93.839771,128.75419 h 19.113499 l 1.01865,-11.97769 H 97.663 Z M 105.56346,93.585771 h 16.30891 l 7.13582,-11.721042 h -19.1135 z"
             style="fill:#5b0047;fill-opacity:1;stroke-width:0.26458332" />
          <g
             id="g3763">
            <path
               inkscape:connector-curvature="0"
               id="use3761"
               d="M 136.144,151.43427 H 62.751229 L 94.350417,57.909354 H 167.23519 L 138.69194,105.05281 Z M 93.839771,128.75419 h 19.113499 l 1.01865,-11.97769 H 97.663 Z M 105.56346,93.585771 h 16.30891 l 7.13582,-11.721042 h -19.1135 z"
               style="fill-opacity:0;stroke:#000000;stroke-width:0.26458332;stroke-opacity:0" />
          </g>
        </g>
        <g
           id="g3773">
          <path
             inkscape:connector-curvature="0"
             id="use3767"
             d="M 60.457292,5.4107292 36.247917,75.747562 h 41.028937 l -7.646458,23.44473 H 5.1567292 L 37.012562,5.4107292 Z"
             style="fill:#000c3e;fill-opacity:1;stroke-width:0.26458332" />
          <g
             id="g3771">
            <path
               inkscape:connector-curvature="0"
               id="use3769"
               d="M 60.457292,5.4107292 36.247917,75.747562 h 41.028937 l -7.646458,23.44473 H 5.1567292 L 37.012562,5.4107292 Z"
               style="fill-opacity:0;stroke:#000000;stroke-width:0.26458332;stroke-opacity:0" />
          </g>
        </g>
      </g>
    </g>
    <g
       aria-label="L   A   M   E   B   O   I"
       style="font-style:italic;font-variant:normal;font-weight:300;font-stretch:normal;font-size:9.14833355px;line-height:1.25;font-family:Roboto;-inkscape-font-specification:'Roboto Light Italic';letter-spacing:0px;word-spacing:0px;fill:#000000;fill-opacity:1;stroke:none;stroke-width:0.22870836"
       id="text3899">
      <path
         d="m 27.197553,179.61091 h 6.235876 l -0.160811,0.92913 H 25.93787 l 2.260282,-13.00779 h 1.098872 z"
         style="font-size:18.2966671px;stroke-width:0.22870836"
         id="path3901"
         inkscape:connector-curvature="0" />
      <path
         d="M 56.027311,176.895 H 50.32747 l -1.938661,3.64504 h -1.188211 l 7.030995,-13.00779 h 1.045268 l 2.510432,13.00779 h -1.081005 z m -5.208475,-0.93806 h 5.029796 l -1.286484,-7.04886 z"
         style="font-size:18.2966671px;stroke-width:0.22870836"
         id="path3903"
         inkscape:connector-curvature="0" />
      <path
         d="m 76.602128,167.53225 2.653374,11.45329 6.646836,-11.45329 h 1.474096 l -2.260281,13.00779 h -1.089938 l 0.991665,-5.70878 1.063136,-5.62836 -6.620034,11.33714 h -0.839789 l -2.698043,-11.42648 -0.920194,5.77131 -0.982731,5.65517 h -1.089938 l 2.260281,-13.00779 z"
         style="font-size:18.2966671px;stroke-width:0.22870836"
         id="path3905"
         inkscape:connector-curvature="0" />
      <path
         d="m 109.63083,174.30416 h -5.89639 l -0.92913,5.30675 h 6.78978 l -0.16081,0.92913 h -7.87972 l 2.26028,-13.00779 h 7.83505 l -0.16974,0.93806 h -6.73618 l -0.85766,4.90473 h 5.90533 z"
         style="font-size:18.2966671px;stroke-width:0.22870836"
         id="path3907"
         inkscape:connector-curvature="0" />
      <path
         d="m 124.92569,180.54004 2.26029,-13.00779 3.6629,0.009 q 1.86719,0.0447 2.81419,0.92019 0.94699,0.87552 0.80405,2.41216 -0.0983,1.01847 -0.74152,1.77785 -0.64324,0.75045 -1.74211,1.14354 0.92913,0.28589 1.4473,1.11674 0.51816,0.82192 0.43776,1.89399 -0.13401,1.69745 -1.37583,2.71591 -1.23288,1.01847 -3.22514,1.01847 z m 2.17988,-6.25374 -0.92913,5.32461 3.12687,0.009 q 1.41156,0 2.36749,-0.74152 0.96487,-0.74152 1.11674,-2.0548 0.11614,-1.13461 -0.51816,-1.81359 -0.62538,-0.67897 -1.83146,-0.71471 z m 0.15188,-0.9202 2.84992,0.009 q 1.39369,-0.0179 2.26028,-0.70578 0.87552,-0.68792 1.0006,-1.84039 0.22335,-2.26028 -2.54617,-2.34962 l -2.70698,-0.009 z"
         style="font-size:18.2966671px;stroke-width:0.22870836"
         id="path3909"
         inkscape:connector-curvature="0" />
      <path
         d="m 153.58571,180.71872 q -1.82252,-0.0357 -2.89459,-1.25969 -1.06314,-1.23288 -1.15248,-3.28768 -0.0357,-0.71471 0.0625,-1.42049 l 0.17868,-1.23288 q 0.40202,-2.72485 1.96546,-4.44909 1.59917,-1.75999 3.94879,-1.71532 1.19715,0.0268 2.09054,0.58964 0.90233,0.55391 1.40262,1.62598 0.5003,1.06313 0.54497,2.34068 0.0268,0.76832 -0.0804,1.5009 l -0.20548,1.37582 q -0.31269,1.84039 -1.16141,3.21622 -0.83979,1.37582 -2.04587,2.06373 -1.20608,0.67898 -2.65337,0.65218 z m 4.99406,-7.40622 q 0.0715,-0.56284 0.0804,-1.14354 0,-1.08994 -0.33949,-1.98333 -0.33948,-0.8934 -1.0274,-1.36689 -0.67897,-0.48243 -1.65277,-0.50924 -1.78679,-0.0447 -3.04647,1.28649 -1.25968,1.32222 -1.66171,3.5825 -0.32162,1.83145 -0.31268,2.70698 0,1.80465 0.78618,2.82312 0.79512,1.01846 2.23348,1.0542 1.90293,0.0447 3.14474,-1.37583 1.25075,-1.42049 1.59917,-3.75224 z"
         style="font-size:18.2966671px;stroke-width:0.22870836"
         id="path3911"
         inkscape:connector-curvature="0" />
      <path
         d="m 175.70609,180.54004 h -1.08994 l 2.26028,-13.00779 h 1.08994 z"
         style="font-size:18.2966671px;stroke-width:0.22870836"
         id="path3913"
         inkscape:connector-curvature="0" />
    </g>
  </g>
</svg>
